<svg width="37" height="14" viewBox="0 0 37 14" fill="none" xmlns="http://www.w3.org/2000/svg">
<path d="M4.618 8.52301L6.796 2.52901H6.832L8.974 8.52301H4.618ZM5.896 0.981007L0.892 13.833H2.638L4.078 9.96301H9.514L10.918 13.833H12.808L7.786 0.981007H5.896ZM15.7859 6.50701V2.42101H19.2059C19.5779 2.42101 19.9259 2.44501 20.2499 2.49301C20.5859 2.52901 20.8799 2.61901 21.1319 2.76301C21.3839 2.90701 21.5819 3.11101 21.7259 3.37501C21.8699 3.63901 21.9419 3.99901 21.9419 4.45501C21.9419 5.13901 21.7259 5.65501 21.2939 6.00301C20.8739 6.33901 20.1779 6.50701 19.2059 6.50701H15.7859ZM14.0759 0.981007V13.833H20.2859C20.9219 13.833 21.4799 13.731 21.9599 13.527C22.4519 13.311 22.8599 13.035 23.1839 12.699C23.5199 12.351 23.7719 11.955 23.9399 11.511C24.1079 11.067 24.1919 10.611 24.1919 10.143C24.1919 9.35101 23.9819 8.67901 23.5619 8.12701C23.1419 7.57501 22.5359 7.21501 21.7439 7.04701V7.01101C22.3559 6.77101 22.8239 6.40501 23.1479 5.91301C23.4839 5.40901 23.6519 4.81501 23.6519 4.13101C23.6519 3.48301 23.5019 2.93701 23.2019 2.49301C22.9139 2.04901 22.5599 1.70101 22.1399 1.44901C21.9479 1.32901 21.7139 1.23901 21.4379 1.17901C21.1739 1.11901 20.8859 1.07701 20.5739 1.05301C20.2619 1.01701 19.9439 0.999007 19.6199 0.999007C19.3079 0.987007 19.0139 0.981007 18.7379 0.981007H14.0759ZM15.7859 12.393V7.94701H19.6919C20.0519 7.94701 20.3999 7.98301 20.7359 8.05501C21.0719 8.11501 21.3659 8.22901 21.6179 8.39701C21.8819 8.55301 22.0919 8.76901 22.2479 9.04501C22.4039 9.32101 22.4819 9.66901 22.4819 10.089C22.4819 10.809 22.2659 11.373 21.8339 11.781C21.4139 12.189 20.8259 12.393 20.0699 12.393H15.7859ZM26.3801 0.981007V13.833H28.0001V3.51901H28.0361L34.7501 13.833H36.6221V0.981007H35.0021V11.403H34.9661L28.1981 0.981007H26.3801Z" fill="#C4CCF9"/>
</svg>
